# xmcd
#
# Track frame offsets:
#	150
#	22646
#	45085
#	67521
#	89916
#	112322
#	134821
#	156369
#	178740
#	200565
#	222607
#	244700
#	266316
#	288199
#
# Disc length: 4137 seconds
#
# Revision: 1
# Processed by: cddbd v1.5.2PL0 Copyright (c) Steve Scherf et al.
# Submitted via: audiograbber 1.83.01
#
DISCID=cb10270e
DTITLE=Gym Music - Sandra Neukom - Body and Mind 47
DYEAR=2008
DGENRE=Relax
TTITLE0=2002 - The dreaming tree
TTITLE1=David Lanz - And time stood still
TTITLE2=Michael Maxell - Women of Ireland
TTITLE3=Wyclef - Always and forever
TTITLE4=Sarah Brightman  - Naturaleza muerta
TTITLE5=Ah Nee Mah - Voices of the wind
TTITLE6=Tony O`Connor - Ocean moods
TTITLE7=David Arkenstone - Taken by the wind
TTITLE8=Neil H. - Candlelight dreams 
TTITLE9=Maire Brennan - Perfect time
TTITLE10=Cheryl Gunn - Dark of the moon
TTITLE11=Chris Spheeris - Rendevous
TTITLE12=Howard Shore - The council of Elrondo
TTITLE13=Mike Rowland - Garden of treasures
EXTD=
EXTT0=
EXTT1=
EXTT2=
EXTT3=
EXTT4=
EXTT5=
EXTT6=
EXTT7=
EXTT8=
EXTT9=
EXTT10=
EXTT11=
EXTT12=
EXTT13=
PLAYORDER=
